<?xml version="1.0" encoding="UTF-8" standalone="no"?>
<svg
   version="1.1"
   id="svg1"
   width="200px"
   height="200px"
   xmlns="http://www.w3.org/2000/svg"
   xmlns:svg="http://www.w3.org/2000/svg">
  <defs
     id="defs1" />
  <g
     id="g1362"
     transform="matrix(3.6423646,0,0,3.6423646,-67.459612,-837.00037)">
    <path
       id="path1606"
       style="fill:#000000;fill-opacity:1;stroke:#000000;stroke-width:1.5875;stroke-linecap:butt;stroke-linejoin:miter;stroke-miterlimit:4;stroke-dasharray:none;stroke-opacity:1;paint-order:stroke fill markers"
       d="m 65.616662,230.58963 -1.322917,1.32291 v 0.26459 h -2.645833 v 0.79375 h -6.614583 v -0.79375 h -1.852084 v -1.05834 h -3.704166 l -0.529167,0.52917 h -8.202083 l -0.529167,0.52917 h -1.322917 v 2.38125 l -0.03824,0.046 c -0.408606,-0.86728 -1.178001,-1.8266 -2.607593,-1.89808 l -12.7,-0.52916 c -1.651288,0 -2.878992,0.73816 -3.126425,2.11666 h -0.180866 c -0.529167,0 -0.926042,0.39689 -0.926042,0.92605 v 6.35 c 0,1.98438 1.984375,3.175 3.439583,3.175 1.5875,0 3.175,-1.05834 3.96875,-1.7198 0.983128,-0.81927 1.503146,-1.67783 1.722377,-2.58123 l 3.833873,-2.57814 c 1.984026,-1.28962 2.703417,-0.79386 3.608565,0.31574 l -2.153356,2.59468 1.719791,1.71979 h 3.12229 l 1.375627,2.11666 11.288716,-2.11666 h 3.792534 v -1.32292 h 6.614583 v 1.32292 h 5.820833 v -0.79375 h 4.7625 l -3.704167,-8.73125 h -1.058333 v -0.79375 h -0.79375 v -1.5875 z" />
    <path
       style="fill:#8e6c25;fill-opacity:1;stroke:#000000;stroke-width:0.529167;stroke-linecap:butt;stroke-linejoin:miter;stroke-miterlimit:4;stroke-dasharray:none;stroke-opacity:1;paint-order:stroke fill markers"
       d="m 20.240625,234.2938 c -0.529167,0 -0.926043,0.39688 -0.926043,0.92604 v 6.35 c 0,1.98438 1.984376,3.175 3.439584,3.175 1.5875,0 3.175,-1.05833 3.96875,-1.71979 1.382302,-1.15192 1.852084,-2.38125 1.852084,-3.70416 l -0.132293,-5.02709 z"
       id="path1604" />
    <path
       style="fill:#eb3222;fill-opacity:1;stroke:#000000;stroke-width:0.529167;stroke-linecap:butt;stroke-linejoin:miter;stroke-miterlimit:4;stroke-dasharray:none;stroke-opacity:1;paint-order:stroke fill markers"
       d="m 23.547916,232.17713 12.699999,0.52917 c 2.645835,0.13229 3.04271,3.30729 3.04271,3.30729 l -2.38125,3.43959 c -1.5875,-1.85209 -1.984376,-3.30729 -4.630209,-1.5875 l -7.672916,5.15937 c -2.026675,1.15436 -4.233334,0.13229 -4.233334,-1.85208 v -6.35 c 0,-1.71979 1.322917,-2.64584 3.175,-2.64584 z"
       id="path1600" />
    <path
       style="fill:#e21021;fill-opacity:1;stroke:#000000;stroke-width:0.529167;stroke-linecap:butt;stroke-linejoin:miter;stroke-miterlimit:4;stroke-dasharray:none;stroke-opacity:1;paint-order:stroke fill markers"
       d="m 68.527085,232.97088 3.704164,8.73125 h -6.614587 v -8.73125 z"
       id="path1598" />
    <path
       style="fill:#4e4f51;fill-opacity:1;stroke:#000000;stroke-width:0.529167;stroke-linecap:butt;stroke-linejoin:miter;stroke-miterlimit:4;stroke-dasharray:none;stroke-opacity:1;paint-order:stroke fill markers"
       d="m 53.181248,231.1188 h -3.704166 l -0.529167,0.52917 h -8.202083 l -0.79375,0.79375 v 3.175 l -3.439583,3.70416 3.439583,5.29167 12.7,-2.38125 v -1.05833 h 14.022923 l -1e-5,-10.58334 h -1.058333 l -1.32291,1.32292 v 1.05833 H 53.181248 Z"
       id="path1596" />
    <path
       id="path1618"
       style="fill:#b40d1b;fill-opacity:1;stroke:none;stroke-width:0.264583px;stroke-linecap:butt;stroke-linejoin:miter;stroke-opacity:1"
       d="m 65.616662,239.05629 v 2.64584 h 6.614583 l -1.122412,-2.64584 z" />
    <path
       id="path1335"
       style="fill:#eb0a14;fill-opacity:1;stroke:none;stroke-width:0.999999px;stroke-linecap:butt;stroke-linejoin:miter;stroke-opacity:1"
       d="m 110.41406,272.53906 c -6.02686,0 -9.31167,14.4336 -16.992185,14.4336 -5.338768,0 -5.619724,-6.62915 -9.59375,-6.57813 -3.061404,0.0393 -3.883385,4.35506 -6.828125,6.49609 V 301 c 0,7.49998 8.340126,11.36294 16,7 l 29,-19.5 c 10,-6.49999 11.5,-1.00003 17.5,6 l 9,-13 c 0,0 -0.13475,-1.02552 -0.55859,-2.47266 -0.61743,0.13542 -1.20636,0.22266 -1.73829,0.22266 -5.95896,0 -5.59371,-5.07812 -10.8496,-5.07812 -5.92111,0 -9.08195,5.49218 -14.24024,5.49218 -4.23158,0 -5.64874,-7.125 -10.69922,-7.125 z"
       transform="matrix(0.26458333,0,0,0.26458333,0,161.53333)" />
    <path
       id="path1628"
       style="fill:#b60a14;fill-opacity:1;stroke:none;stroke-width:0.529167;stroke-linecap:butt;stroke-linejoin:miter;stroke-miterlimit:4;stroke-dasharray:none;stroke-opacity:1;paint-order:stroke fill markers"
       d="m 33.866664,236.41046 c -1.058334,0 -8.995833,5.15938 -8.995833,5.15938 -1.666383,0.94914 -3.79372,0.53187 -4.497916,-0.74931 v 0.35243 c 0,1.98437 2.206658,3.00644 4.233333,1.85208 l 7.672916,-5.15937 c 2.645833,-1.71979 3.042708,-0.26459 4.630208,1.5875 l 2.106331,-3.04271 z" />
    <path
       style="fill:#d9d9d9;fill-opacity:1;stroke:#000000;stroke-width:0.529167;stroke-linecap:butt;stroke-linejoin:miter;stroke-miterlimit:4;stroke-dasharray:none;stroke-opacity:1;paint-order:stroke fill markers"
       d="m 35.454165,242.49588 -1.719791,-1.71979 5.159375,-6.21771 v -2.38125 h 16.139583 v 2.64584 h 6.614587 v -2.64584 h 5.820826 v 10.31875 h -5.820826 v -2.64583 h -6.614587 v 2.64583 z"
       id="path1594" />
    <path
       id="path1634"
       style="fill:#c0c1c3;fill-opacity:1;stroke:none;stroke-width:0.264583px;stroke-linecap:butt;stroke-linejoin:miter;stroke-opacity:1"
       d="m 61.699071,235.24826 c -1.252688,0 -1.808414,1.9327 -3.808036,1.9327 -1.332759,0 -2.250803,-1.29346 -3.770829,-1.29346 -1.990951,0 -3.179458,1.59576 -6.550503,1.59576 -1.888506,0 -2.701986,-2.19986 -5.220872,-2.19986 -2.050034,0 -3.458597,1.28355 -5.339207,1.54564 l -3.275253,3.94705 1.719791,1.71979 h 19.579167 v -2.64584 h 6.614583 v 2.64584 h 5.820833 v -5.90197 c -0.702183,0.12564 -1.307988,0.6134 -2.132686,0.6134 -1.895222,0 -2.254525,-1.95905 -3.636988,-1.95905 z" />
    <path
       id="path1639"
       style="fill:#9c9ea1;fill-opacity:1;stroke:none;stroke-width:0.264583px;stroke-linecap:butt;stroke-linejoin:miter;stroke-opacity:1"
       d="m 33.932292,240.53734 -0.197921,0.23875 1.719791,1.71979 h 19.579167 v -0.52917 H 35.718746 Z m 33.536453,0.51935 c -1.06013,0.34044 -3.128204,0.8713 -5.820833,0.90537 v 0.53382 h 5.820833 z" />
  </g>
</svg>
