<?xml version="1.0" encoding="UTF-8" standalone="no"?>
<svg
   version="1.1"
   id="svg1"
   width="200px"
   height="200px"
   xmlns="http://www.w3.org/2000/svg"
   xmlns:svg="http://www.w3.org/2000/svg">
  <defs
     id="defs1" />
  <g
     id="g1"
     transform="matrix(4.4590585,0,0,4.2434551,-22.383085,-835.90739)">
    <path
       id="path1343"
       style="fill:#000000;fill-opacity:1;stroke:#000000;stroke-width:1.5875;stroke-linecap:butt;stroke-linejoin:miter;stroke-miterlimit:4;stroke-dasharray:none;stroke-opacity:1;paint-order:stroke fill markers"
       d="m 41.539582,197.78128 v 0.79375 h -0.79375 l -0.734839,1.32292 H 38.42711 l 0.296106,-0.52917 h -3.798218 l -0.79375,-0.79375 H 21.695832 l -1.058334,1.85209 1.058334,0.79375 h 0.417545 l -2.269629,3.96875 h 2.538347 c -0.027,0.0361 -0.05325,0.0771 -0.08061,0.11059 -1.12029,1.36872 -3.174206,3.20391 -2.973979,4.39456 0.170681,1.01492 3.180026,1.60953 4.73046,0.93896 0.57693,-0.24952 0.472461,-1.23906 0.650607,-1.72289 0.18902,-0.51338 0.702267,-1.1966 1.168921,-1.86914 h 4.020425 l 1.05575,-1.85208 h 1.863452 l -0.803568,1.32291 h 7.144783 l 1.799374,-3.175 h 3.083016 l 2.154907,-3.43958 h -3.289209 l 0.749825,-1.32292 h -0.529167 v -0.79375 z m -12.58838,7.40834 h 1.437122 l -0.754993,1.32291 h -1.445907 z" />
    <path
       style="fill:#4e4f51;fill-opacity:1;stroke:#000000;stroke-width:0.529167;stroke-linecap:butt;stroke-linejoin:miter;stroke-miterlimit:4;stroke-dasharray:none;stroke-opacity:1;paint-order:stroke fill markers"
       d="m 21.695832,198.57504 -1.058333,1.85209 1.058333,0.79375 h 15.081251 v 2.11666 h 7.263395 l 2.155123,-3.43958 H 35.454167 l -1.322917,-1.32292 z"
       id="path1271" />
    <path
       style="fill:#cccf5a;fill-opacity:1;stroke:#000000;stroke-width:0.529167;stroke-linecap:butt;stroke-linejoin:miter;stroke-miterlimit:4;stroke-dasharray:none;stroke-opacity:1;paint-order:stroke fill markers"
       d="m 41.539584,197.78129 h 1.5875 v 1.05834 h -1.5875 z"
       id="path1275" />
    <path
       style="fill:#707074;fill-opacity:1;stroke:#000000;stroke-width:0.529167;stroke-linecap:butt;stroke-linejoin:miter;stroke-miterlimit:4;stroke-dasharray:none;stroke-opacity:1;paint-order:stroke fill markers"
       d="m 28.187623,206.51254 0.916543,-1.5875 h -2.504043 l -0.916544,1.5875 z"
       id="path1281" />
    <path
       style="fill:#e3e3e6;fill-opacity:1;stroke:#000000;stroke-width:0.529167;stroke-linecap:butt;stroke-linejoin:miter;stroke-miterlimit:4;stroke-dasharray:none;stroke-opacity:1;paint-order:stroke fill markers"
       d="m 31.104711,204.92506 -1.206795,2.11666 h -4.233334 l 0.529167,-0.52917 h 3.439582 l 0.905956,-1.58749 z"
       id="path1277" />
    <path
       style="fill:#d9d9d9;fill-opacity:1;stroke:#000000;stroke-width:0.529167;stroke-linecap:butt;stroke-linejoin:miter;stroke-miterlimit:4;stroke-dasharray:none;stroke-opacity:1;paint-order:stroke fill markers"
       d="m 23.172577,199.36879 -3.328828,5.82084 h 12.97313 l -0.803106,1.32291 h 7.14456 l 4.497917,-7.9375 h -2.910416 l -1.322918,2.38125 h -1.5875 l 0.887756,-1.5875 z"
       id="path1269" />
    <path
       style="fill:#4e4f51;fill-opacity:1;stroke:#000000;stroke-width:0.529167;stroke-linecap:butt;stroke-linejoin:miter;stroke-miterlimit:4;stroke-dasharray:none;stroke-opacity:1;paint-order:stroke fill markers"
       d="m 21.695832,198.57504 -1.058333,1.85209 1.058333,0.79375 h 15.081251 v 2.11666 h 7.263395 l 2.155123,-3.43958 H 35.454167 l -1.322917,-1.32292 z"
       id="path1285" />
    <path
       style="fill:#cccf5a;fill-opacity:1;stroke:#000000;stroke-width:0.529167;stroke-linecap:butt;stroke-linejoin:miter;stroke-miterlimit:4;stroke-dasharray:none;stroke-opacity:1;paint-order:stroke fill markers"
       d="m 41.539584,197.78129 h 1.5875 v 1.05834 h -1.5875 z"
       id="path1287" />
    <path
       style="fill:#707074;fill-opacity:1;stroke:#000000;stroke-width:0.529167;stroke-linecap:butt;stroke-linejoin:miter;stroke-miterlimit:4;stroke-dasharray:none;stroke-opacity:1;paint-order:stroke fill markers"
       d="m 28.187623,206.51254 0.916543,-1.5875 h -2.504043 l -0.916544,1.5875 z"
       id="path1289" />
    <path
       style="fill:#e3e3e6;fill-opacity:1;stroke:#000000;stroke-width:0.529167;stroke-linecap:butt;stroke-linejoin:miter;stroke-miterlimit:4;stroke-dasharray:none;stroke-opacity:1;paint-order:stroke fill markers"
       d="m 31.104711,204.92506 -1.206795,2.11666 h -4.233334 l 0.529167,-0.52917 h 3.439582 l 0.905956,-1.58749 z"
       id="path1291" />
    <path
       style="fill:#d9d9d9;fill-opacity:1;stroke:#000000;stroke-width:0.529167;stroke-linecap:butt;stroke-linejoin:miter;stroke-miterlimit:4;stroke-dasharray:none;stroke-opacity:1;paint-order:stroke fill markers"
       d="m 23.172577,199.36879 -3.328828,5.82084 h 12.97313 l -0.803106,1.32291 h 7.14456 l 4.497917,-7.9375 h -2.910416 l -1.348556,2.38125 h -1.561862 l 0.901353,-1.5875 z"
       id="path1293" />
    <path
       id="path1331"
       style="fill:#c0c1c3;fill-opacity:1;stroke:none;stroke-width:0.264583px;stroke-linecap:butt;stroke-linejoin:miter;stroke-opacity:1"
       d="m 41.526663,200.12068 c -0.688633,0 -1.95232,2.33629 -2.897499,2.33629 -0.642258,0 -1.021529,-0.55449 -1.791621,-0.55449 -1.302693,0 -2.040869,1.14595 -3.013253,0.78341 -0.883499,-0.32939 -0.675171,-2.3696 -1.60352,-2.3306 -0.956227,0.0401 -2.719006,2.913 -4.761983,2.913 -1.476209,0 -2.108608,-2.55023 -3.577042,-2.55023 -0.408587,0 -1.056461,0.2113 -1.772502,0.51004 l -2.265495,3.96152 h 12.973368 l -0.803568,1.32291 h 7.144783 l 3.36362,-5.93607 c -0.356909,-0.26128 -0.715182,-0.45578 -0.995288,-0.45578 z" />
    <path
       id="path1338"
       style="fill:#9c9ea1;fill-opacity:1;stroke:none;stroke-width:0.264583px;stroke-linecap:butt;stroke-linejoin:miter;stroke-opacity:1"
       d="m 40.719477,203.75818 c -2.228556,0.60722 -5.002471,0.63598 -20.421493,0.63717 l -0.454236,0.79427 h 12.964586 l -0.79375,1.32291 h 7.143747 z" />
    <path
       style="fill:#cccf5a;fill-opacity:1;stroke:#000000;stroke-width:0.529167;stroke-linecap:butt;stroke-linejoin:miter;stroke-miterlimit:4;stroke-dasharray:none;stroke-opacity:1;paint-order:stroke fill markers"
       d="m 24.256547,203.3119 c 0.542048,0.078 0.504058,0.8053 0.812915,1.01121 0.482132,0.32143 1.236131,0.23018 1.534151,0.53391 0.741533,0.75574 -1.456495,2.86341 -1.894812,4.05387 -0.178146,0.48383 -0.07374,1.47337 -0.65067,1.72289 -1.550434,0.67057 -4.559745,0.0761 -4.730426,-0.93882 -0.200227,-1.19065 1.853576,-3.02585 2.973866,-4.39458 0.588736,-0.7193 1.080498,-2.11428 1.954976,-1.98848 z"
       id="path1323" />
    <circle
       style="opacity:0.999;fill:#a6b034;fill-opacity:1;stroke:#a6b034;stroke-width:0.264583;stroke-linecap:round;stroke-miterlimit:4;stroke-dasharray:none;stroke-opacity:1;paint-order:stroke fill markers"
       id="circle1327"
       cx="24.030079"
       cy="204.31215"
       r="0.37226248" />
    <circle
       style="opacity:0.999;fill:#f2f4d0;fill-opacity:1;stroke:#8f9070;stroke-width:0.264583;stroke-linecap:round;stroke-miterlimit:4;stroke-dasharray:none;stroke-opacity:1;paint-order:stroke fill markers"
       id="path1325"
       cx="24.077082"
       cy="204.13109"
       r="0.37226248" />
    <path
       id="path1358"
       style="fill:#b3bd3b;fill-opacity:1;stroke:none;stroke-width:0.264583px;stroke-linecap:butt;stroke-linejoin:miter;stroke-opacity:1"
       d="m 25.432038,204.48578 c -0.145601,0.55315 -0.382489,1.15217 -0.747241,1.31155 -0.320417,0.14 -0.950951,-0.60343 -1.264523,-0.44855 -0.509181,0.25149 0.103213,1.33712 -0.422196,1.65055 -0.355645,0.21217 -0.865755,-0.27199 -1.243852,-0.17209 -0.460977,0.12186 -1.278107,0.83902 -2.055688,1.60507 -0.277222,0.46091 -0.43323,0.89263 -0.371037,1.26246 0.170681,1.01492 3.180026,1.60953 4.73046,0.93896 0.576931,-0.24952 0.472461,-1.23906 0.650607,-1.72289 0.438317,-1.19046 2.636508,-3.29828 1.894974,-4.05402 -0.230404,-0.23482 -0.73235,-0.23516 -1.171504,-0.37104 z" />
    <path
       id="path1365"
       style="fill:#a6b034;fill-opacity:1;stroke:none;stroke-width:0.264583px;stroke-linecap:butt;stroke-linejoin:miter;stroke-opacity:1"
       d="m 26.747203,205.30227 c -2.487957,1.72512 -2.894612,4.14384 -3.809587,4.26847 -0.995409,0.1356 -2.219017,-0.52919 -3.186885,-1.22007 -0.308186,0.49131 -0.48906,0.95264 -0.42323,1.3441 0.170681,1.01492 3.180026,1.60953 4.73046,0.93896 0.576931,-0.24952 0.472461,-1.23906 0.650607,-1.72289 0.370132,-1.00527 1.988551,-2.66158 2.038635,-3.60857 z" />
    <path
       id="circle1450"
       style="opacity:0.999;fill:#d6d7b8;fill-opacity:1;stroke:none;stroke-width:0.264583;stroke-linecap:round;stroke-miterlimit:4;stroke-dasharray:none;stroke-opacity:1;paint-order:stroke fill markers"
       d="m 24.253817,203.8031 a 0.37226247,0.37226247 0 0 1 0.05374,0.19224 0.37226247,0.37226247 0 0 1 -0.372586,0.37207 0.37226247,0.37226247 0 0 1 -0.176734,-0.045 0.37226247,0.37226247 0 0 0 0.318844,0.18087 0.37226247,0.37226247 0 0 0 0.37207,-0.37207 0.37226247,0.37226247 0 0 0 -0.195336,-0.32815 z" />
  </g>
</svg>
