<?xml version="1.0" encoding="UTF-8" standalone="no"?>
<svg
   version="1.1"
   id="svg1"
   width="200px"
   height="200px"
   xmlns="http://www.w3.org/2000/svg"
   xmlns:svg="http://www.w3.org/2000/svg">
  <defs
     id="defs1" />
  <g
     id="g3181"
     transform="matrix(3.3419042,0,0,2.9977934,238.85471,-1096.5679)">
    <path
       id="path3142"
       style="fill:#000000;fill-opacity:1;stroke:#000000;stroke-width:6;stroke-linecap:butt;stroke-linejoin:miter;stroke-miterlimit:4;stroke-dasharray:none;stroke-opacity:1;paint-order:stroke fill markers"
       d="m -214,775 v 8 l -5.82031,5.85156 C -222.65679,785.65698 -228.32317,780 -233,780 h -25.5 c -4.67865,0 -5.84078,1.7686 -5.97266,4.86133 -2.25515,0.62048 -2.66015,2.16006 -2.66015,4.75976 0.16651,16.28878 14.33778,38.2592 27.79297,33.74219 2.35863,0.73028 4.8128,1.13672 7.33984,1.13672 14.09351,0 51.75551,-11.86586 66.05078,-16.53711 0.25341,4.68535 1.64714,7.03711 6.94922,7.03711 7.50001,0 14,-2 22,-2 h 23 c 8.5,0 13.00001,2 20,2 5.682611,0 9.152617,-0.86123 9.865234,-4 H -71 v -2 h 21 l -8,-10.5 h -13 v -1 h 13 V 784 h -13 v -4 h -13 v 4 h -10 v -4 h -4 l -3,-3 h -10 v 3 h -21 v -5 h -7 l -3,3 h -53 l -1.57812,1.42188 L -201,775 Z M -226.35742,796.70117 -222,801 h 3.90625 c 0.82102,1.9041 2.8935,6 5.59375,6 1.7143,0 20.34019,-4.53067 26.35742,-6 h 7.00781 c 0.48581,2.77745 -0.64355,6.06557 -4.13671,7.47266 0,0 -33.73202,9.84375 -41.22852,9.84375 -10.30481,0 -11.86582,-19.47336 -1.85742,-21.61524 z"
       transform="matrix(0.26458333,0,0,0.26458333,0,161.53333)" />
    <path
       id="path3123"
       style="fill:#f78c25;fill-opacity:1;stroke:#000000;stroke-width:0.529167;stroke-linecap:butt;stroke-linejoin:miter;stroke-miterlimit:4;stroke-dasharray:none;stroke-opacity:1;paint-order:stroke fill markers"
       d="m -69.163733,369.10981 c -1.322917,0 -1.515152,0.41805 -1.515152,1.3441 0.04619,4.51854 4.165629,10.69556 7.869286,8.70903 2.035722,-1.17533 -1.435001,-10.0366 -3.852031,-10.0366 z" />
    <path
       id="path3114"
       style="fill:#75571a;fill-opacity:1;stroke:#000000;stroke-width:0.529167;stroke-linecap:butt;stroke-linejoin:miter;stroke-miterlimit:4;stroke-dasharray:none;stroke-opacity:1;paint-order:stroke fill markers"
       d="m -68.394787,367.90833 c -1.322917,0 -1.5875,0.52916 -1.5875,1.45521 0,5.02709 3.836458,10.31875 8.598958,10.31875 4.630209,0 19.05,-4.89479 19.05,-4.89479 v -3.96875 h -15.345833 c 0,0 -2.248958,-2.91042 -3.96875,-2.91042 z m 8.995833,4.36563 h 10.790039 c 1.399117,0 1.856952,2.46739 0.118245,3.16776 0,0 -8.924835,2.60462 -10.908284,2.60462 -2.885053,0 -3.181757,-5.77238 0,-5.77238 z" />
    <path
       id="path3130"
       style="fill:#553d06;fill-opacity:1;stroke:none;stroke-width:0.999999px;stroke-linecap:butt;stroke-linejoin:miter;stroke-opacity:1"
       d="m -233.25391,787.29883 c -5.07469,0 -5.29384,10.9414 -11.26562,10.9414 -3.68582,0 -5.23584,-3.78711 -8.62695,-3.78711 -3.87678,0 -2.95683,9.44504 -5.78907,11.78126 5.83338,10.47485 15.70199,18.26562 26.93555,18.26562 17.5,0 72,-18.5 72,-18.5 v -12.45508 h -62.18359 c -4.52059,0 -6.64213,-6.24609 -11.07032,-6.24609 z M -224.5,796.5 h 40.78125 c 5.288,0 7.01876,9.32559 0.44727,11.97266 0,0 -33.73202,9.84375 -41.22852,9.84375 -10.90414,0 -12.02554,-21.81641 0,-21.81641 z"
       transform="matrix(0.26458333,0,0,0.26458333,0,161.53333)" />
    <path
       id="path3137"
       style="fill:#473400;fill-opacity:1;stroke:none;stroke-width:0.999999px;stroke-linecap:butt;stroke-linejoin:miter;stroke-opacity:1"
       d="m -179.82031,799 c 1.01101,1.85633 1.13103,4.40989 -0.0156,6.5 H -172 v 1.5 c 0,0 -42.70949,15.5 -65.5,15.5 -1.43276,0 -3.11236,-0.1172 -4.86523,-0.27734 3.25406,1.45353 6.73657,2.27734 10.36523,2.27734 17.5,0 72,-18.5 72,-18.5 v -7 z"
       transform="matrix(0.26458333,0,0,0.26458333,0,161.53333)" />
    <path
       style="fill:#4e4f51;fill-opacity:1;stroke:#000000;stroke-width:0.529167;stroke-linecap:butt;stroke-linejoin:miter;stroke-miterlimit:4;stroke-dasharray:none;stroke-opacity:1;paint-order:stroke fill markers"
       d="m -15.345827,368.96666 v 3.57188 h -37.570835 v -3.96875 l 1.322917,-1.19063 h 14.022916 l 0.79375,-0.79375 h 1.852083 v 1.5875 h 5.55625 v -1.05833 h 2.645834 l 1.058333,1.05833 v 0.79375 z"
       id="path3067" />
    <path
       style="fill:#4e4f51;fill-opacity:1;stroke:#000000;stroke-width:0.529167;stroke-linecap:butt;stroke-linejoin:miter;stroke-miterlimit:4;stroke-dasharray:none;stroke-opacity:1;paint-order:stroke fill markers"
       d="m -15.345826,372.80312 2.116666,2.77813 h -7.937503 v -2.77813 z"
       id="path3069" />
    <path
       id="path3071"
       style="fill:#48484a;fill-opacity:1;stroke:none;stroke-width:0.264583px;stroke-linecap:butt;stroke-linejoin:miter;stroke-opacity:1"
       d="m -52.916663,371.08333 v 1.45521 h 37.570833 v -1.45521 z" />
    <path
       id="path3076"
       style="fill:#696a6c;fill-opacity:1;stroke:none;stroke-width:0.264583px;stroke-linecap:butt;stroke-linejoin:miter;stroke-opacity:1"
       d="m -21.166663,372.80312 v 1.45521 h 6.92981 l -1.108977,-1.45521 z" />
    <path
       style="fill:#616264;fill-opacity:1;stroke:#000000;stroke-width:0.529167;stroke-linecap:butt;stroke-linejoin:miter;stroke-miterlimit:4;stroke-dasharray:none;stroke-opacity:1;paint-order:stroke fill markers"
       d="m -48.154161,373.2 c 0,0 -7.540625,1.85209 -8.069792,1.85209 -0.926041,0 -1.5875,-1.8521 -1.5875,-1.8521 z"
       id="path3085" />
    <path
       id="path3160"
       style="fill:#424243;fill-opacity:1;stroke:none;stroke-width:0.999999px;stroke-linecap:butt;stroke-linejoin:miter;stroke-opacity:1"
       d="m -218.5,800 c 0,0 0.7719,2.09786 2.0293,4 h 17.8125 c 8.1164,-1.91092 16.6582,-4 16.6582,-4 z"
       transform="matrix(0.26458333,0,0,0.26458333,0,161.53333)" />
    <path
       id="path4943-0"
       d="m -58.737494,373.46459 -1.322917,-1.30511 3.439583,-3.45739 v -2.11667 h 3.439584 l 1.322917,1.32292 h 26.9875 v 2.38125 h 2.645834 v -2.38125 h 3.439583 l 4.2e-5,8.20208 h -19.314626 l -10e-7,-2.64583 z"
       style="fill:#d9d9d9;fill-opacity:1;stroke:#000000;stroke-width:0.529167;stroke-miterlimit:4;stroke-dasharray:none;stroke-opacity:1;paint-order:stroke fill markers" />
    <path
       id="path3097"
       style="fill:#c0c1c3;fill-opacity:1;stroke:none;stroke-width:0.999999px;stroke-linecap:butt;stroke-linejoin:miter;stroke-opacity:1"
       d="m -147.8457,782.85352 c -7.82473,0 -12.6505,9.30078 -23.80469,9.30078 -6.73939,0 -11.93295,-8.22266 -22.3418,-8.22266 -8.55343,0 -16.17683,3.65753 -24.99219,4.07813 L -227,796.06641 -222,801 h 78 v 10 h 73 v -23.82617 c -2.069302,-0.58599 -3.064938,-0.79762 -6.515625,-0.79762 -3.248986,0 -4.487782,0.54109 -6.484375,1.37379 V 789 h -10 v -0.83008 c -1.466432,-0.45772 -3.052536,-0.89648 -5.044922,-0.89648 -6.691908,0 -10.607378,4.43945 -16.205078,4.43945 -4.72922,0 -8.17792,-7.87305 -13.36719,-7.87305 -6.18455,0 -8.50619,7.05078 -13.91797,7.05078 -3.24214,0 -1.71257,-8.0371 -5.31054,-8.0371 z"
       transform="matrix(0.26458333,0,0,0.26458333,0,161.53333)" />
    <path
       id="path3095"
       style="fill:#9c9ea1;fill-opacity:1;stroke:none;stroke-width:0.999999px;stroke-linecap:butt;stroke-linejoin:miter;stroke-opacity:1"
       d="M -226.72461,795.79102 -227,796.06641 -222,801 h 70 l -8,-3 h -60 c -1.87469,0 -4.5884,-1.14317 -6.72461,-2.20898 z M -71,801.76953 C -79.588274,803.84272 -94.218859,807 -104,807 h -32 l -8,-3 v 7 h 73 z"
       transform="matrix(0.26458333,0,0,0.26458333,0,161.53333)" />
    <path
       style="fill:#8a6623;fill-opacity:1;stroke:#000000;stroke-width:0.529167;stroke-linecap:butt;stroke-linejoin:miter;stroke-miterlimit:4;stroke-dasharray:none;stroke-opacity:1;paint-order:stroke fill markers"
       d="m -42.333329,371.87708 c -0.976439,0 -1.575387,0.39003 -1.5875,1.5875 v 1.32292 c 0,1.5875 0.264585,2.38125 1.852083,2.38125 1.984377,0 3.704169,-0.52917 5.820836,-0.52917 h 6.085416 c 2.248959,0 3.439584,0.52917 5.291665,0.52917 1.719794,0 2.673652,-0.29812 2.645833,-1.45521 0,-1.36555 -1.996889,-0.8537 -3.571875,-0.8537 -1.072105,0.005 -1.458566,-2.98276 -3.307291,-2.98276 z"
       id="path3087" />
    <path
       id="path3107"
       style="fill:#745519;fill-opacity:1;stroke:none;stroke-width:0.999999px;stroke-linecap:butt;stroke-linejoin:miter;stroke-opacity:1"
       d="m -84.857422,807.17969 c -2.945218,2.60295 -7.047183,4.91406 -12.402344,4.91406 -5.462824,0 -16.595884,-3.74805 -35.226564,-3.74805 -16.71856,0 -20.42053,3.39649 -28.01758,3.39649 -1.99124,0 -3.98138,-1.61319 -5.44336,-3.6836 2e-4,0.003 -1.9e-4,0.006 0,0.01 0.0302,0.52019 0.0795,1.00317 0.14258,1.46484 0.0123,0.0903 0.0233,0.18348 0.0371,0.27149 0.0196,0.12497 0.0419,0.24477 0.0645,0.36523 0.0254,0.13529 0.0526,0.26885 0.082,0.39844 0.0266,0.11717 0.0559,0.23123 0.0859,0.34375 0.0339,0.12698 0.0708,0.25004 0.10938,0.37109 0.0339,0.1063 0.0678,0.21272 0.10547,0.31446 0.0469,0.12664 0.0993,0.24762 0.15234,0.36718 0.0373,0.084 0.0728,0.16949 0.11328,0.25 0.0613,0.12203 0.13027,0.23562 0.19922,0.34961 0.0434,0.0718 0.0823,0.14818 0.12891,0.2168 0.1156,0.17027 0.24089,0.33177 0.37695,0.48242 0.001,10e-4 0.003,0.003 0.004,0.004 0.0345,0.0382 0.0754,0.0705 0.11132,0.10742 0.10838,0.11131 0.2185,0.22048 0.33985,0.32031 0.0672,0.0553 0.14354,0.10254 0.21484,0.1543 0.1055,0.0766 0.21131,0.15379 0.32617,0.22266 0.0744,0.0446 0.154,0.0856 0.23243,0.12695 0.12264,0.0647 0.248,0.1268 0.38086,0.18359 0.0888,0.038 0.1819,0.073 0.27539,0.10742 0.13587,0.05 0.27771,0.0961 0.42382,0.13868 0.10041,0.0293 0.20127,0.0582 0.30664,0.084 0.15387,0.0376 0.31571,0.0695 0.48047,0.0996 0.11498,0.021 0.22723,0.0432 0.34766,0.0606 0.18057,0.026 0.37323,0.0447 0.56641,0.0625 0.11227,0.0104 0.2193,0.0237 0.33593,0.0312 0.31922,0.0208 0.65089,0.0332 1.00391,0.0332 7.50001,0 14,-2 22,-2 h 23 c 5.3125,0 9.06348,0.78125 12.83789,1.36719 C -98.897461,814.71875 -96.624996,815 -94,815 c 6.500009,0 10.105143,-1.12675 10,-5.5 0,-1.04066 -0.318678,-1.78259 -0.857422,-2.32031 z"
       transform="matrix(0.26458333,0,0,0.26458333,0,161.53333)" />
  </g>
</svg>
