<?xml version="1.0" encoding="UTF-8" standalone="no"?>
<svg
   version="1.1"
   id="svg1"
   width="200px"
   height="200px"
   xmlns="http://www.w3.org/2000/svg"
   xmlns:svg="http://www.w3.org/2000/svg">
  <defs
     id="defs1" />
  <g
     id="g1681"
     transform="matrix(3.7048919,0,0,3.7048919,-71.595772,-1623.8078)">
    <path
       id="path1583"
       style="fill:#000000;fill-opacity:1;stroke:#000000;stroke-width:1.5875;stroke-linecap:butt;stroke-linejoin:miter;stroke-miterlimit:4;stroke-dasharray:none;stroke-opacity:1;paint-order:stroke fill markers"
       d="m 40.481249,439.08125 -1.527555,2.64583 h -2.176611 v 5.09064 c -1.458106,0.93551 -4.601684,4.08363 -5.652368,7.21248 h -4.767668 c 0.06634,-0.5715 0.08887,-1.17596 0.09612,-1.77043 1.013228,-0.10406 2.005389,-0.50144 1.901693,-1.68053 -0.30018,-3.41307 -0.443378,-5.94174 -2.484603,-5.94174 H 25.36486 c -0.324328,-0.17206 -0.743921,-0.26459 -1.287777,-0.26459 h -2.374015 c -2.81912,0 -1.014409,1.3284 -1.014409,5.68854 0,3.35826 -1.715604,6.74688 0.993222,6.74688 h 2.659785 c 0.534689,0 0.933673,-0.19762 1.232483,-0.52917 h 6.551022 c 0.263879,0.52692 0.952656,0.52917 1.476912,0.52917 h 1.852083 c 1.852086,0 2.645834,0 2.645834,-1.05833 v -0.79375 c 0,-0.0577 0.0033,-0.11425 0.0062,-0.17106 l 3.036507,-1.15186 c 0.34563,-1.61293 1.344856,-2.86308 1.60972,-3.175 h 3.285071 v 2.11667 h 2.645834 v 1.32291 h 6.085416 v 3.96875 l 8.202084,-1.71979 v -2.38125 h 2.645833 v 0.39791 l 2.116666,-10e-4 v -1.88516 l 0.396875,-0.25786 2.910417,-1.16428 -0.21704,-0.58652 1.539957,-1.00098 -2.116667,-6.48229 h -2.513542 v -1.05835 h -2.116666 v 10.45106 h -0.264583 v -10.45104 h -0.79375 v -0.79375 h -0.79375 v 0.79375 h -1.058334 v -0.79375 h -0.79375 v 0.79375 h -5.820833 l -1.852083,-1.85208 H 43.391666 l -0.79375,-0.79375 z" />
    <path
       style="fill:#505153;fill-opacity:1;stroke:#000000;stroke-width:0.529167;stroke-linecap:butt;stroke-linejoin:miter;stroke-miterlimit:4;stroke-dasharray:none;stroke-opacity:1;paint-order:stroke fill markers"
       d="m 22.357291,444.63749 v 7.54063 l 2.06809,-10e-6 c 0,0 4.135881,0.74801 3.929477,-1.59888 -0.30018,-3.41309 -0.443378,-5.94174 -2.484603,-5.94174 z"
       id="path1559" />
    <path
       style="fill:#505153;fill-opacity:1;stroke:#000000;stroke-width:0.529167;stroke-linecap:butt;stroke-linejoin:miter;stroke-miterlimit:4;stroke-dasharray:none;stroke-opacity:1;paint-order:stroke fill markers"
       d="m 37.041666,446.66269 c -1.300826,0.67746 -4.797388,4.03352 -5.916951,7.3675 h -5.780526 v 2.24896 h 11.697477 z"
       id="path1567" />
    <path
       style="fill:#a1a3a8;fill-opacity:1;stroke:#000000;stroke-width:0.529167;stroke-linecap:butt;stroke-linejoin:miter;stroke-miterlimit:4;stroke-dasharray:none;stroke-opacity:1;paint-order:stroke fill markers"
       d="m 41.142709,453.63331 -3.836458,1.45522 -1e-6,-4.76251 h 5.556251 c 0,0 -1.322917,1.45523 -1.719792,3.30729 z"
       id="path1477" />
    <path
       style="fill:#505153;fill-opacity:1;stroke:#000000;stroke-width:0.529167;stroke-linecap:butt;stroke-linejoin:miter;stroke-miterlimit:4;stroke-dasharray:none;stroke-opacity:1;paint-order:stroke fill markers"
       d="m 66.145835,442.7854 h 4.101042 l 2.116666,6.4823 -5.291666,3.43958 h -0.926045 z"
       id="path3430" />
    <path
       id="path3434"
       style="fill:#757678;fill-opacity:1;stroke:none;stroke-width:0.999999px;stroke-linecap:butt;stroke-linejoin:miter;stroke-opacity:1"
       d="m 250,1066 v 6 h 18.43945 l -1.95898,-6 z"
       transform="matrix(0.26458333,0,0,0.26458333,0,161.53333)" />
    <path
       style="fill:#d8d8d7;fill-opacity:1;stroke:#000000;stroke-width:0.529167;stroke-linecap:butt;stroke-linejoin:miter;stroke-miterlimit:4;stroke-dasharray:none;stroke-opacity:1;paint-order:stroke fill markers"
       d="m 66.807293,447.28331 h 2.910417 l 1.322917,3.57189 -3.96875,1.58748 H 66.80729 Z"
       id="path3428" />
    <path
       style="fill:#505153;fill-opacity:1;stroke:#000000;stroke-width:0.529167;stroke-linecap:butt;stroke-linejoin:miter;stroke-miterlimit:4;stroke-dasharray:none;stroke-opacity:1;paint-order:stroke fill markers"
       d="m 40.481249,439.08123 -2.1386,3.70417 h 18.807353 l -2.910417,-2.91042 H 43.391666 l -0.79375,-0.79375 z"
       id="path3426" />
    <path
       style="fill:#505153;fill-opacity:1;stroke:#000000;stroke-width:0.529167;stroke-linecap:butt;stroke-linejoin:miter;stroke-miterlimit:4;stroke-dasharray:none;stroke-opacity:1;paint-order:stroke fill markers"
       d="m 54.768749,452.1781 v 5.68855 l 8.202084,-1.71979 v -2.38126 h 2.910416 v -1.5875 z"
       id="path3424" />
    <path
       style="fill:#d8d8d7;fill-opacity:1;stroke:#000000;stroke-width:0.529167;stroke-linecap:butt;stroke-linejoin:miter;stroke-miterlimit:4;stroke-dasharray:none;stroke-opacity:1;paint-order:stroke fill markers"
       d="m 36.777083,441.72707 h 28.575 v 10.84792 l -8.995832,-1e-5 -10e-7,1.32291 h -7.672917 v -1.32291 h -2.645834 v -2.11667 h -9.260415 z"
       id="path3412" />
    <path
       style="fill:#505153;fill-opacity:1;stroke:#000000;stroke-width:0.529167;stroke-linecap:butt;stroke-linejoin:miter;stroke-miterlimit:4;stroke-dasharray:none;stroke-opacity:1;paint-order:stroke fill markers"
       d="m 61.912499,443.57915 h 0.79375 v -2.64583 h -0.79375 z"
       id="path3416" />
    <path
       style="fill:#505153;fill-opacity:1;stroke:#000000;stroke-width:0.529167;stroke-linecap:butt;stroke-linejoin:miter;stroke-miterlimit:4;stroke-dasharray:none;stroke-opacity:1;paint-order:stroke fill markers"
       d="m 63.764583,443.57915 h 0.79375 v -2.64583 h -0.79375 z"
       id="path3418" />
    <path
       id="path3448"
       style="fill:#b2b4b8;fill-opacity:1;stroke:none;stroke-width:0.999999px;stroke-linecap:butt;stroke-linejoin:miter;stroke-opacity:1"
       d="m 191.37891,1065.7324 c -10.05078,0 -15.30887,6.7031 -22.14258,6.7031 -6.28515,0 -11.05934,-6.5898 -17.35156,-6.5898 -5.73781,0 -8.75294,6.1317 -12.88477,8.918 V 1092 h 35 v 8 h 10 v 5 h 29 v -5 h 34 v -25.4746 c -2.38299,-1.1123 -4.48755,-2.8027 -8.03711,-2.8027 -9.26348,0 -15.92173,6.3437 -22.59375,6.3437 -5.08246,0 -12.83917,-12.334 -24.99023,-12.334 z"
       transform="matrix(0.26458333,0,0,0.26458333,0,161.53333)" />
    <path
       style="fill:#004adf;fill-opacity:1;stroke:#000000;stroke-width:0.529167;stroke-linecap:butt;stroke-linejoin:miter;stroke-miterlimit:4;stroke-dasharray:none;stroke-opacity:1;paint-order:stroke fill markers"
       d="m 60.324999,448.87081 h 5.027084 v 1.05833 h -5.027084 z"
       id="path3420" />
    <path
       id="path3441"
       style="fill:#a1a3a8;fill-opacity:1;stroke:none;stroke-width:0.264583px;stroke-linecap:butt;stroke-linejoin:miter;stroke-opacity:1"
       d="m 46.037499,451.25206 v 1.32292 h 2.645834 11.509375 v -1.32292 z m 2.645834,2.11667 v 0.52917 h 7.672916 v -0.52917 z" />
    <path
       style="fill:#004adf;fill-opacity:1;stroke:#000000;stroke-width:0.529167;stroke-linecap:butt;stroke-linejoin:miter;stroke-miterlimit:4;stroke-dasharray:none;stroke-opacity:1;paint-order:stroke fill markers"
       d="m 60.324999,451.51664 h 5.027084 v 1.05834 h -5.027084 z"
       id="path3422" />
    <path
       id="path3455"
       style="fill:#b2b4b8;fill-opacity:1;stroke:none;stroke-width:0.999999px;stroke-linecap:butt;stroke-linejoin:miter;stroke-opacity:1"
       d="m 262.04297,1082.8965 c -2.6357,0 -2.54614,5.4004 -7.0957,5.4004 -0.72591,0 -1.56383,-0.1717 -2.44727,-0.4434 V 1099.5 h 1 l 15,-6 -3.28516,-8.8691 c -1.03494,-0.7491 -1.85909,-1.7344 -3.17187,-1.7344 z"
       transform="matrix(0.26458333,0,0,0.26458333,0,161.53333)" />
    <path
       style="mix-blend-mode:normal;fill:#d8d8d7;fill-opacity:1;stroke:#000000;stroke-width:0.529167;stroke-linecap:butt;stroke-linejoin:miter;stroke-miterlimit:4;stroke-dasharray:none;stroke-opacity:1;paint-order:stroke fill markers"
       d="m 65.616668,441.99167 h 2.116667 v 12.17083 l -2.116667,9.3e-4 z"
       id="path3414" />
    <path
       style="fill:#b2b4b8;fill-opacity:1;stroke:none;stroke-width:0.264583px;stroke-linecap:butt;stroke-linejoin:miter;stroke-opacity:1"
       d="m 65.616666,450.72289 h 2.116666 v 3.43959 h -2.116666 z"
       id="path3432" />
    <path
       style="fill:#ebe9eb;fill-opacity:1;stroke:none;stroke-width:0.264583px;stroke-linecap:butt;stroke-linejoin:miter;stroke-opacity:1"
       d="m 67.733332,441.99141 v 1.19089 l -2.116664,0.79402 v -1.98465 z"
       id="path3439" />
    <path
       id="path3462"
       style="fill:#373839;fill-opacity:1;stroke:none;stroke-width:0.264583px;stroke-linecap:butt;stroke-linejoin:miter;stroke-opacity:1"
       d="m 61.949705,453.72117 c -1.951702,0 -2.901471,2.11667 -4.045746,2.11667 -0.811956,0 -0.900732,-0.91207 -1.818495,-0.91207 -0.621615,0 -0.809792,0.61981 -1.316715,0.90225 v 2.03864 l 8.202084,-1.71979 v -2.0965 c -0.319043,-0.16619 -0.601113,-0.3292 -1.021128,-0.3292 z" />
    <path
       style="fill:#004adf;fill-opacity:1;stroke:#000000;stroke-width:0.529167;stroke-linecap:butt;stroke-linejoin:miter;stroke-miterlimit:4;stroke-dasharray:none;stroke-opacity:1;paint-order:stroke fill markers"
       d="m 42.333333,450.72289 v -1.05833 h -1.190624 c 0,0 -0.396875,-2.11666 -2.38125,-2.11666 -2.513541,0 -6.746875,5.40277 -6.746875,8.20209 0,1.05833 0.926042,1.05832 1.5875,1.05832 h 1.852082 c 1.852085,0 2.645834,10e-6 2.645834,-1.05833 v -0.79374 c 0,-2.51354 2.778126,-4.23335 4.233333,-4.23335 z"
       id="path1468" />
    <ellipse
       style="opacity:0.999;fill:#f2f4d0;fill-opacity:1;stroke:#333333;stroke-width:0.396875;stroke-linecap:round;stroke-miterlimit:4;stroke-dasharray:none;stroke-opacity:1;paint-order:stroke fill markers"
       id="ellipse1462"
       cx="38.496876"
       cy="448.73856"
       rx="0.66145855"
       ry="0.66146272" />
    <path
       id="path1456"
       style="opacity:0.999;fill:#c3c4a7;fill-opacity:1;stroke:none;stroke-width:0.396875;stroke-linecap:round;stroke-miterlimit:4;stroke-dasharray:none;stroke-opacity:1;paint-order:stroke fill markers"
       d="m 38.813134,448.15768 a 0.66145854,0.66146272 0 0 1 0.08062,0.31625 0.66145854,0.66146272 0 0 1 -0.661458,0.66146 0.66145854,0.66146272 0 0 1 -0.316259,-0.0806 0.66145854,0.66146272 0 0 0 0.580842,0.34521 0.66145854,0.66146272 0 0 0 0.661459,-0.66146 0.66145854,0.66146272 0 0 0 -0.345199,-0.58084 z" />
    <path
       id="path1465"
       style="fill:#0030df;fill-opacity:1;stroke:none;stroke-width:0.529167;stroke-linecap:butt;stroke-linejoin:miter;stroke-miterlimit:4;stroke-dasharray:none;stroke-opacity:0.411765;paint-order:stroke fill markers"
       d="m 42.333333,450.33378 c -7.244858,0.23707 -3.661884,5.32924 -10.273273,5.77742 0.192267,0.69628 0.966734,0.69712 1.542023,0.69712 h 1.852083 c 1.852086,0 2.645834,0 2.645834,-1.05833 v -0.79375 c 0,-2.51354 2.778127,-4.23333 4.233333,-4.23333 z" />
    <path
       id="path1569"
       style="fill:#404143;fill-opacity:1;stroke:none;stroke-width:0.999999px;stroke-linecap:butt;stroke-linejoin:miter;stroke-opacity:1"
       d="m 84.5,1085.5 v 13 h 7.816406 c 0,0 15.631674,2.8272 14.851564,-6.043 -0.21761,-2.4742 -0.42359,-4.7726 -0.65235,-6.957 z"
       transform="matrix(0.26458333,0,0,0.26458333,0,161.53333)" />
    <path
       style="fill:#2161e3;fill-opacity:1;stroke:#000000;stroke-width:0.529167;stroke-linecap:butt;stroke-linejoin:miter;stroke-miterlimit:4;stroke-dasharray:none;stroke-opacity:1;paint-order:stroke fill markers"
       d="m 26.458333,449.12985 v 2.44071 c 0,2.33032 -0.05914,5.23775 -2.116666,5.23775 h -2.659636 c -2.708825,0 -0.993426,-3.38864 -0.993426,-6.74688 0,-4.36016 -1.804544,-5.68853 1.014576,-5.68853 h 2.373903 c 2.523114,0 2.381249,1.97882 2.381249,4.75695 z"
       id="path1555" />
    <path
       id="path1577"
       style="fill:#004adf;fill-opacity:1;stroke:none;stroke-width:0.999999px;stroke-linecap:butt;stroke-linejoin:miter;stroke-opacity:1"
       d="m 100.00195,1083.0762 c -5.41757,1.1718 -6.282995,12.1367 -12.244138,12.1367 -2.187552,0 -4.837934,-1.0488 -7.865234,-1.0488 -0.623779,0 -1.252447,0.071 -1.886719,0.1718 C 77.040875,1105.6479 72.743904,1116 81.947266,1116 H 92 c 7.776476,0 8,-10.9894 8,-19.7969 v -9.2246 c 0,-1.3563 0.007,-2.6564 0.002,-3.9023 z"
       transform="matrix(0.26458333,0,0,0.26458333,0,161.53333)" />
  </g>
</svg>
